<svg width="32" height="32" viewBox="0 0 32 32" fill="none" xmlns="http://www.w3.org/2000/svg">
<path id="innerSVG" fill-rule="evenodd" clip-rule="evenodd" d="M16 0C7.2 0 0 7.2 0 16C0 23.1 4.6 29.1 10.9 31.2C11.7 31.3 12 30.9 12 30.4C12 30 12 29 12 27.7C7.5 28.7 6.6 25.6 6.6 25.6C5.9 23.8 4.8 23.3 4.8 23.3C3.3 22.3 4.9 22.3 4.9 22.3C6.5 22.4 7.4 23.9 7.4 23.9C8.8 26.3 11.1 25.6 12.1 25.2C12.2 24.2 12.7 23.5 13.1 23.1C9.5 22.7 5.8 21.3 5.8 15.2C5.8 13.5 6.4 12 7.4 10.9C7.2 10.5 6.7 8.9 7.6 6.7C7.6 6.7 8.9 6.3 12 8.3C13.3 7.9 14.6 7.8 16 7.8C17.4 7.8 18.7 8 20 8.3C23.1 6.2 24.4 6.7 24.4 6.7C25.3 8.9 24.7 10.5 24.6 10.9C25.6 12 26.2 13.4 26.2 15.2C26.2 21.3 22.5 22.7 18.9 23.1C19.5 23.6 20 24.6 20 26.1C20 28.2 20 30 20 30.5C20 30.9 20.3 31.4 21.1 31.3C27.4 29.1 32 23.1 32 16C32 7.2 24.8 0 16 0Z" fill="#444444"/>
</svg>
