<svg width="32" height="32" viewBox="0 0 32 32" fill="none" xmlns="http://www.w3.org/2000/svg">
<rect width="32" height="32" fill="black" fill-opacity="0"/>
<path id="innerSVG" d="M16 0C12.8355 0 9.74207 0.938384 7.11088 2.69649C4.4797 4.45459 2.42894 6.95345 1.21793 9.87706C0.0069325 12.8007 -0.309921 16.0177 0.307443 19.1214C0.924806 22.2251 2.44866 25.0761 4.6863 27.3137C6.92394 29.5513 9.77487 31.0752 12.8786 31.6926C15.9823 32.3099 19.1993 31.9931 22.1229 30.7821C25.0466 29.5711 27.5454 27.5203 29.3035 24.8891C31.0616 22.2579 32 19.1645 32 16C32 11.7565 30.3143 7.68687 27.3137 4.68629C24.3131 1.68571 20.2435 0 16 0V0ZM8.06001 8H23.94C24.2523 8.00017 24.5599 8.07572 24.8367 8.22022C25.1135 8.36472 25.3513 8.5739 25.53 8.83L20.53 12.45L17 15L16 15.75L15 15L11.47 12.44L6.47001 8.82C6.64977 8.56575 6.8881 8.35851 7.16484 8.21578C7.44159 8.07306 7.74863 7.99905 8.06001 8ZM25.88 22.06C25.88 22.3148 25.8298 22.567 25.7323 22.8024C25.6348 23.0378 25.4919 23.2516 25.3118 23.4318C25.1316 23.6119 24.9178 23.7548 24.6824 23.8523C24.447 23.9498 24.1948 24 23.94 24H8.06001C7.80524 24 7.55297 23.9498 7.3176 23.8523C7.08223 23.7548 6.86837 23.6119 6.68822 23.4318C6.50807 23.2516 6.36517 23.0378 6.26768 22.8024C6.17019 22.567 6.12001 22.3148 6.12001 22.06V11L9.22001 13.26L14.83 17.33L15.36 17.71L15.46 17.78C15.5236 17.8253 15.5947 17.8592 15.67 17.88C15.7061 17.8889 15.7439 17.8889 15.78 17.88C15.9239 17.9201 16.0761 17.9201 16.22 17.88C16.256 17.8903 16.2941 17.8903 16.33 17.88C16.4053 17.8592 16.4764 17.8253 16.54 17.78H16.59L17.12 17.4L22.73 13.33L25.88 11V22.06Z" fill="#444444"/>
</svg>
