<svg width="32" height="32" viewBox="0 0 32 32" fill="none" xmlns="http://www.w3.org/2000/svg">
<path id="innerSVG" d="M16 0C7.2 0 0 7.2 0 16C0 24.8 7.2 32 16 32C24.8 32 32 24.8 32 16C32 7.2 24.8 0 16 0ZM11.6 19.6C9.6 19.6 8 18 8 16C8 14 9.6 12.4 11.6 12.4C13.6 12.4 15.2 14 15.2 16C15.1 18 13.5 19.6 11.6 19.6ZM20.4 19.6C18.4 19.6 16.8 18 16.8 16C16.8 14 18.4 12.4 20.4 12.4C22.4 12.4 24 14 24 16C24 18 22.4 19.6 20.4 19.6Z" fill="#444444"/>
<rect width="20" height="15" rx="2" transform="translate(6 9)" fill="white"/>
<line y1="-1" x2="13.4536" y2="-1" transform="translate(6 10) rotate(41.9872)" stroke="#444444" stroke-width="2"/>
<line y1="-1" x2="13.4536" y2="-1" transform="translate(16 19) rotate(-41.9872)" stroke="#444444" stroke-width="2"/>
</svg>
